<svg id="Layer_35" enable-background="new 0 0 64 64" height="512" viewBox="0 0 64 64" width="512" xmlns="http://www.w3.org/2000/svg"><path d="m55 14c2.98-.01 5.71 1.84 6.63 4.68 1.56 4.85-2.01 9.32-6.63 9.32h-5-8.54c-.69-1.2-1.98-2-3.46-2h-21.95v-.05c-1.27-1.27-2.05-3.02-2.05-4.95 0-3.87 3.13-7 7-7 .34 0 .68.02 1 .07 0-.02 0-.05 0-.07 0-4.42 3.58-8 8-8 1.69 0 3.25.52 4.54 1.41 1.91-3.23 5.43-5.41 9.46-5.41 6.08 0 11 4.92 11 11 0 .34-.02.67-.05 1h.01z" fill="#e6e9ed"/><path d="m48 16-4 6-4-6h2v-8h4v8z" fill="#fcd770"/><path d="m47.12 43.88c.54.54.88 1.29.88 2.12 0 1.66-1.34 3-3 3h-3v-3-3h3c.83 0 1.58.34 2.12.88z" fill="#aab2bd"/><path d="m35 62h-26c0-1.1.45-2.1 1.17-2.83.73-.72 1.73-1.17 2.83-1.17h2 14 2c2.21 0 4 1.79 4 4z" fill="#969faa"/><path d="m15 54h14v4h-14z" fill="#969faa"/><path d="m42 49v1c0 2.21-1.79 4-4 4h-9-14-9c-2.21 0-4-1.79-4-4v-2h24l2-2h14z" fill="#ccd1d9"/><path d="m42 43v3h-14l-2 2h-24v-18c0-2.21 1.79-4 4-4h10.05 21.95c1.48 0 2.77.8 3.46 2 .34.59.54 1.27.54 2z" fill="#69d6f4"/><path d="m22 34v10h-10v-4h4v-6z" fill="#fcd770"/><path d="m16 34v6h-4-6v-10h10z" fill="#ff826e"/><path d="m57 35h-7c-1.654 0-3-1.346-3-3s1.346-3 3-3h5c2.549 0 4.968-1.232 6.471-3.295 1.53-2.101 1.934-4.773 1.108-7.332-.939-2.912-3.519-4.938-6.581-5.299-.001-.024.002-.049.002-.074 0-6.617-5.383-12-12-12-3.875 0-7.534 1.915-9.772 5.056-1.298-.693-2.741-1.056-4.228-1.056-4.625 0-8.444 3.509-8.942 8.004-.019-.001-.038-.004-.058-.004-4.411 0-8 3.589-8 8 0 1.429.38 2.796 1.078 4h-8.078c-2.757 0-5 2.243-5 5v20c0 2.757 2.243 5 5 5h8v2h-1c-2.757 0-5 2.243-5 5v1h28v-1c0-2.757-2.243-5-5-5h-1v-2h8c2.757 0 5-2.243 5-5h2c1.858 0 3.411-1.28 3.858-3h8.142c3.309 0 6-2.691 6-6s-2.691-6-6-6zm-51-8h32c1.654 0 3 1.346 3 3v15h-13.414l-2 2h-22.586v-17c0-1.654 1.346-3 3-3zm27.829 34h-23.658c.413-1.164 1.525-2 2.829-2h18c1.304 0 2.416.836 2.829 2zm-5.829-4h-12v-2h12zm10-4h-32c-1.654 0-3-1.346-3-3v-1h23.414l2-2h12.586v3c0 1.654-1.346 3-3 3zm7-5h-2v-4h2c1.103 0 2 .897 2 2s-.897 2-2 2zm12-3h-8.142c-.447-1.72-2-3-3.858-3h-2v-12c0-2.757-2.243-5-5-5h-21.463c-.99-1.102-1.537-2.507-1.537-4 0-3.309 2.691-6 6-6 1.996 0 3.856.989 4.976 2.646l1.657-1.12c-1.101-1.629-2.742-2.769-4.595-3.258.368-3.517 3.349-6.268 6.962-6.268 1.423 0 2.795.428 3.968 1.237l.882.609.546-.923c1.797-3.037 5.094-4.923 8.604-4.923 5.514 0 10 4.486 10 10 0 1.946-.559 3.833-1.617 5.454l1.675 1.093c.892-1.367 1.481-2.891 1.757-4.484 2.245.297 4.182 1.82 4.86 3.925.627 1.943.328 3.963-.821 5.54-1.127 1.548-2.942 2.472-4.854 2.472h-5c-2.757 0-5 2.243-5 5s2.243 5 5 5h7c2.206 0 4 1.794 4 4s-1.794 4-4 4z"/><path d="m47 15v-8h-6v8h-2.869l5.869 8.803 5.869-8.803zm-3 5.197-2.131-3.197h1.131v-8h2v8h1.131z"/><path d="m37 49h2v2h-2z"/><path d="m33 49h2v2h-2z"/><path d="m29 49h2v2h-2z"/><path d="m11 45h12v-12h-6v-4h-12v12h6zm10-10v8h-8v-2h4v-6zm-14-4h8v8h-8z"/><path d="m25 29h14v2h-14z"/><path d="m25 33h14v2h-14z"/><path d="m25 37h14v2h-14z"/><path d="m33 41h2v2h-2z"/><path d="m29 41h2v2h-2z"/><path d="m25 41h2v2h-2z"/><path d="m17 21h2c0-1.103.897-2 2-2v-2c-2.206 0-4 1.794-4 4z"/><path d="m59 21h-2c0 1.103-.897 2-2 2v2c2.206 0 4-1.794 4-4z"/><path d="m22 21h2v2h-2z"/><path d="m26 21h2v2h-2z"/><path d="m30 21h2v2h-2z"/></svg>